<svg width="46" height="45" viewBox="0 0 46 45" fill="none" xmlns="http://www.w3.org/2000/svg">
<g clip-path="url(#clip0_367_179)">
<path d="M23.0476 3.7583C12.8016 3.7583 4.49603 12.0638 4.49603 22.3099C4.49603 30.1702 9.38623 36.8822 16.2874 39.5851C16.126 38.1177 15.9776 35.8655 16.3524 34.2645C16.69 32.8175 18.5266 25.0425 18.5266 25.0425C18.5266 25.0425 17.9719 23.9313 17.9719 22.2895C17.9719 19.709 19.4672 17.7852 21.3279 17.7852C22.9103 17.7852 23.6747 18.9743 23.6747 20.3972C23.6747 21.9889 22.6617 24.3691 22.1386 26.573C21.7008 28.4208 23.0643 29.9253 24.8861 29.9253C28.1827 29.9253 30.7168 26.4487 30.7168 21.4305C30.7168 16.9893 27.526 13.8838 22.9678 13.8838C17.6899 13.8838 14.5918 17.8427 14.5918 21.9351C14.5918 23.5287 15.2059 25.2392 15.972 26.1686C16.1242 26.3523 16.1446 26.5137 16.1001 26.701C15.9591 27.2873 15.6474 28.5469 15.5862 28.8048C15.5064 29.1443 15.3172 29.2166 14.9665 29.0515C12.6495 27.9718 11.2006 24.5843 11.2006 21.8647C11.2006 16.0135 15.4526 10.6372 23.4595 10.6372C29.895 10.6372 34.8965 15.2232 34.8965 21.3526C34.8965 27.7474 30.8653 32.8917 25.2701 32.8917C23.3908 32.8917 21.6229 31.914 21.0181 30.762C21.0181 30.762 20.0868 34.3035 19.8623 35.1736C19.443 36.7838 18.3133 38.806 17.5564 40.0378C19.2909 40.5702 21.135 40.8615 23.0476 40.8615C33.2918 40.8615 41.5992 32.5541 41.5992 22.3099C41.5992 12.0657 33.2937 3.7583 23.0476 3.7583Z" fill="#D0342C"/>
</g>
<defs>
<clipPath id="clip0_367_179">
<rect width="44.5238" height="44.5238" fill="white" transform="translate(0.785706 0.0478516)"/>
</clipPath>
</defs>
</svg>
